<mxfile host="app.diagrams.net" modified="2023-07-05T06:58:29.450Z" agent="Mozilla/5.0 (Windows NT 10.0; Win64; x64) AppleWebKit/537.36 (KHTML, like Gecko) Chrome/114.0.0.0 Safari/537.36" version="21.5.2" etag="oYPsBO3e5X008JJCpPtt" type="github">
  <diagram name="第 1 页" id="MvaNPlfzRtb8qux0nWip">
    <mxGraphModel>
      <root>
        <mxCell id="0" />
        <mxCell id="1" parent="0" />
      </root>
    </mxGraphModel>
  </diagram>
</mxfile>
